HIERARCHY
ROOT joint_Root
{
	OFFSET 0.0 0.0 0.0
	CHANNELS 6 Xposition Yposition Zposition Zrotation Xrotation Yrotation 
	JOINT Hips
	{
		OFFSET 4.5925 91.4895 -427.239
		CHANNELS 6 Xposition Yposition Zposition Zrotation Xrotation Yrotation 
		JOINT Spine
		{
			OFFSET 15.7357 0.0 0.0
			CHANNELS 6 Xposition Yposition Zposition Zrotation Xrotation Yrotation 
			JOINT Chest
			{
				OFFSET 8.98455 -0.406207 0.0
				CHANNELS 6 Xposition Yposition Zposition Zrotation Xrotation Yrotation 
				JOINT Neck
				{
					OFFSET 16.3773 0.0 0.0
					CHANNELS 6 Xposition Yposition Zposition Zrotation Xrotation Yrotation 
					JOINT Head
					{
						OFFSET 6.45672 0.0 0.0
						CHANNELS 6 Xposition Yposition Zposition Zrotation Xrotation Yrotation 
						End Site
						{
							OFFSET 0.0 0.0 0.0
						}
					}
				}
				JOINT Shoulder_L
				{
					OFFSET 12.9942 -0.242716 4.98039
					CHANNELS 6 Xposition Yposition Zposition Zrotation Xrotation Yrotation 
					JOINT UpperArm_L
					{
						OFFSET 5.34809 0.0 0.0
						CHANNELS 6 Xposition Yposition Zposition Zrotation Xrotation Yrotation 
						JOINT LowerArm_L
						{
							OFFSET 24.3286 1.87007e-05 0.0
							CHANNELS 6 Xposition Yposition Zposition Zrotation Xrotation Yrotation 
							JOINT Hand_L
							{
								OFFSET 22.2916 0.0 0.0
								CHANNELS 6 Xposition Yposition Zposition Zrotation Xrotation Yrotation 
								End Site
								{
									OFFSET 0.0 0.0 0.0
								}
							}
						}
					}
				}
				JOINT Shoulder_R
				{
					OFFSET 12.9945 -0.242716 -4.98039
					CHANNELS 6 Xposition Yposition Zposition Zrotation Xrotation Yrotation 
					JOINT UpperArm_R
					{
						OFFSET -5.34813 0.0 0.0
						CHANNELS 6 Xposition Yposition Zposition Zrotation Xrotation Yrotation 
						JOINT LowerArm_R
						{
							OFFSET -24.3289 0.000322201 0.0
							CHANNELS 6 Xposition Yposition Zposition Zrotation Xrotation Yrotation 
							JOINT Hand_R
							{
								OFFSET -22.2915 -0.000108084 0.0
								CHANNELS 6 Xposition Yposition Zposition Zrotation Xrotation Yrotation 
								End Site
								{
									OFFSET 0.0 0.0 0.0
								}
							}
						}
					}
				}
			}
		}
		JOINT UpperLeg_L
		{
			OFFSET -2.19248 -6.46944 0.0
			CHANNELS 6 Xposition Yposition Zposition Zrotation Xrotation Yrotation 
			JOINT LowerLeg_L
			{
				OFFSET 39.0811 0.0 -1.23785e-05
				CHANNELS 6 Xposition Yposition Zposition Zrotation Xrotation Yrotation 
				JOINT Foot_L
				{
					OFFSET 40.9854 0.0 -1.26872e-05
					CHANNELS 6 Xposition Yposition Zposition Zrotation Xrotation Yrotation 
					JOINT Toes_L
					{
						OFFSET 11.7543 0.0 0.0
						CHANNELS 6 Xposition Yposition Zposition Zrotation Xrotation Yrotation 
						End Site
						{
							OFFSET 0.0 0.0 0.0
						}
					}
				}
			}
		}
		JOINT UpperLeg_R
		{
			OFFSET -2.19251 6.46944 0.0
			CHANNELS 6 Xposition Yposition Zposition Zrotation Xrotation Yrotation 
			JOINT LowerLeg_R
			{
				OFFSET -39.0811 -0.00228153 -0.0401928
				CHANNELS 6 Xposition Yposition Zposition Zrotation Xrotation Yrotation 
				JOINT Foot_R
				{
					OFFSET -40.9854 0.0 0.0
					CHANNELS 6 Xposition Yposition Zposition Zrotation Xrotation Yrotation 
					JOINT Toes_R
					{
						OFFSET -11.7543 0.0 0.0
						CHANNELS 6 Xposition Yposition Zposition Zrotation Xrotation Yrotation 
						End Site
						{
							OFFSET 0.0 0.0 0.0
						}
					}
				}
			}
		}
	}
}
MOTION
Frames:	4
Frame Time:	0.0333333
0.000000 0.000000 0.000000 0.000000 0.000000 -0.000000 0.431043 90.053600 -0.677173 88.911000 -3.152600 10.200300 15.735700 0.000005 -0.000001 90.286700 80.130200 -90.573700 8.984550 -0.406207 -0.000000 11.973500 0.087406 -0.582957 16.377300 -0.000001 -0.000001 9.500540 -3.130960 1.682600 6.456720 -0.000001 -0.000000 -3.920850 -2.575970 1.019500 12.994200 -0.242716 4.980390 -89.905600 -0.322027 -73.662300 5.348090 -0.000007 -0.000001 -75.631000 -32.420100 -64.501400 24.328600 0.000019 0.000005 37.770800 2.052150 -87.353900 22.291600 -0.000001 0.000005 38.324700 4.817240 10.990000 12.994500 -0.242716 -4.980390 89.480900 3.111070 -80.522500 -5.348130 -0.000001 -0.000004 -69.702900 -30.510600 -63.659200 -24.328900 0.000322 -0.000009 20.091000 -1.181850 -93.228100 -22.291500 -0.000108 -0.000004 43.203400 5.288550 0.390955 -2.192480 -6.469440 -0.000000 -174.893000 -12.068600 -2.519320 39.081100 -0.000007 -0.000012 -0.250371 0.354824 35.208000 40.985400 -0.000006 -0.000013 1.295440 5.142800 -72.401600 11.754300 -0.000000 0.000003 -0.000111 -0.001123 -16.620500 -2.192510 6.469440 -0.000001 174.773000 18.337700 179.111000 -39.081100 -0.002282 -0.040193 -0.058066 0.090688 34.082200 -40.985400 0.000008 0.000006 6.359880 12.738600 -73.426100 -11.754300 -0.000006 -0.000006 -0.001950 -0.028095 -17.715500
0.000000 0.000000 0.000000 0.000000 0.000000 -0.000000 0.415535 90.051400 -0.684922 88.920100 -3.018550 10.217000 15.735700 0.000005 -0.000001 90.235000 80.134900 -90.526800 8.984550 -0.406207 -0.000000 11.964200 0.069558 -0.590651 16.377300 -0.000001 -0.000001 9.528930 -3.162150 1.777470 6.456720 -0.000001 -0.000000 -3.898360 -2.636650 1.221750 12.994200 -0.242716 4.980390 -89.908100 -0.313897 -73.683900 5.348090 -0.000007 -0.000001 -74.884500 -31.707000 -64.118000 24.328600 0.000019 0.000005 37.997400 2.412720 -86.915500 22.291600 -0.000001 0.000005 38.012900 4.804640 11.229800 12.994500 -0.242716 -4.980390 89.490800 3.072780 -80.586900 -5.348130 -0.000001 -0.000004 -69.284600 -30.341300 -63.663300 -24.328900 0.000322 -0.000009 20.091100 -1.280890 -93.497900 -22.291500 -0.000108 -0.000004 43.271000 5.287710 0.414112 -2.192480 -6.469440 -0.000000 -174.904000 -11.965200 -2.540950 39.081100 -0.000007 -0.000012 -0.252833 0.358118 35.222700 40.985400 -0.000006 -0.000013 1.304740 5.203950 -72.388000 11.754300 -0.000000 0.000003 -0.000102 -0.001048 -16.617700 -2.192510 6.469440 -0.000001 174.751000 18.439100 179.140000 -39.081100 -0.002282 -0.040193 -0.058503 0.091281 34.097300 -40.985400 0.000008 0.000006 6.388750 12.683800 -73.448400 -11.754300 -0.000006 -0.000006 -0.002110 -0.030081 -17.796300
0.000000 0.000000 0.000000 0.000000 0.000000 -0.000000 0.392517 90.056100 -0.697486 88.960000 -2.814230 10.261600 15.735700 0.000005 -0.000001 90.033300 80.139700 -90.352200 8.984550 -0.406207 -0.000000 11.954700 -0.000278 -0.637565 16.377300 -0.000001 -0.000001 9.496640 -3.203070 1.844820 6.456720 -0.000001 -0.000000 -3.797070 -2.660860 1.406110 12.994200 -0.242716 4.980390 -89.902300 -0.334050 -73.691700 5.348090 -0.000007 -0.000001 -73.571200 -30.494700 -63.871700 24.328600 0.000019 0.000005 38.687400 2.573070 -86.791300 22.291600 -0.000001 0.000005 37.700900 4.792140 11.464700 12.994500 -0.242716 -4.980390 89.495100 3.049990 -80.595200 -5.348130 -0.000001 -0.000004 -68.366100 -29.782000 -63.754800 -24.328900 0.000322 -0.000009 20.161800 -1.370110 -93.726500 -22.291500 -0.000108 -0.000004 43.289400 5.290440 0.338664 -2.192480 -6.469440 -0.000000 -174.949000 -11.838800 -2.524070 39.081100 -0.000007 -0.000012 -0.253357 0.359265 35.192300 40.985400 -0.000006 -0.000013 1.300320 5.233490 -72.342500 11.754300 -0.000000 0.000003 -0.000109 -0.001107 -16.620000 -2.192510 6.469440 -0.000001 174.680000 18.554300 179.213000 -39.081100 -0.002282 -0.040193 -0.060417 0.094159 34.083300 -40.985400 0.000008 0.000006 6.333520 12.652200 -73.437300 -11.754300 -0.000006 -0.000006 -0.001945 -0.028028 -17.712800
0.000000 0.000000 0.000000 0.000000 0.000000 -0.000000 0.362161 90.050700 -0.713928 88.962700 -2.636910 10.297400 15.735700 0.000005 -0.000001 89.831600 80.142400 -90.176500 8.984550 -0.406207 -0.000000 11.948900 -0.070007 -0.682326 16.377300 -0.000001 -0.000001 9.443190 -3.207040 1.895460 6.456720 -0.000001 -0.000000 -3.715770 -2.654190 1.504440 12.994200 -0.242716 4.980390 -89.889200 -0.379335 -73.722600 5.348090 -0.000007 -0.000001 -72.043500 -28.971200 -63.874300 24.328600 0.000019 0.000005 39.075500 2.407850 -87.038000 22.291600 -0.000001 0.000005 37.324500 4.798900 11.337400 12.994500 -0.242716 -4.980390 89.510000 2.983240 -80.667800 -5.348130 -0.000001 -0.000004 -67.135000 -28.933100 -63.924500 -24.328900 0.000322 -0.000009 20.322500 -1.489320 -94.014900 -22.291500 -0.000108 -0.000004 43.183300 5.289720 0.358457 -2.192480 -6.469440 -0.000000 -174.933000 -11.761400 -2.539080 39.081100 -0.000007 -0.000012 -0.251180 0.355733 35.226100 40.985400 -0.000006 -0.000013 1.322990 5.367780 -72.334700 11.754300 -0.000000 0.000003 -0.000104 -0.001060 -16.618200 -2.192510 6.469440 -0.000001 174.676000 18.651700 179.251000 -39.081100 -0.002282 -0.040193 -0.060365 0.093983 34.110900 -40.985400 0.000008 0.000006 6.337010 12.556600 -73.453900 -11.754300 -0.000006 -0.000006 -0.002027 -0.029058 -17.754700
